<svg width="80" height="25" viewBox="0 0 80 25" fill="none" xmlns="http://www.w3.org/2000/svg">
<path d="M3.852 1.49835C3.852 2.11672 3.84 2.84211 3.816 3.67452C3.792 4.48315 3.768 5.10152 3.744 5.52962C3.672 6.74257 3.636 7.95552 3.636 9.16846C3.636 10.0722 3.672 11.0117 3.744 11.9868C4.488 10.9165 5.292 10.1317 6.156 9.63224C7.02 9.13279 8.064 8.88306 9.288 8.88306C10.176 8.88306 11.004 9.27549 11.772 10.0603C12.54 10.8452 13.032 11.7608 13.248 12.8073C13.32 13.7349 13.356 14.8646 13.356 16.1964C13.356 17.0526 13.404 18.1704 13.5 19.5499C13.548 20.0731 13.68 20.5607 13.896 21.0125C14.136 21.4644 14.472 21.6904 14.904 21.6904C15.12 21.6904 15.288 21.6785 15.408 21.6547C15.552 21.6309 15.684 21.619 15.804 21.619C16.14 21.619 16.368 21.7023 16.488 21.8687C16.632 22.0352 16.704 22.2731 16.704 22.5822C16.704 23.153 16.416 23.5811 15.84 23.8665C15.264 24.1519 14.736 24.2946 14.256 24.2946C12.528 24.2946 11.34 23.5811 10.692 22.1541C10.332 21.3455 10.104 20.299 10.008 19.0147C9.912 17.7067 9.864 16.1845 9.864 14.4484C9.864 12.736 9.276 11.8798 8.1 11.8798C7.452 11.8798 6.792 12.2246 6.12 12.9143C5.472 13.5803 4.932 14.4721 4.5 15.59C4.068 16.684 3.852 17.8256 3.852 19.0147L3.888 22.7249C3.888 23.2482 3.684 23.6406 3.276 23.9022C2.868 24.14 2.484 24.259 2.124 24.259C1.596 24.259 1.116 24.1044 0.684 23.7952C0.252 23.4622 0.036 23.0936 0.036 22.6893C0.204 20.9055 0.288 17.9207 0.288 13.7349C0.288 12.9738 0.228 10.1555 0.108 5.27989L0 1.9978C0 1.47457 0.24 1.02268 0.72 0.642151C1.2 0.237834 1.74 0.0356769 2.34 0.0356769C2.868 0.0356769 3.252 0.154592 3.492 0.392426C3.732 0.630259 3.852 0.998901 3.852 1.49835ZM21.2031 1.21295C22.0431 1.2843 22.7751 1.51024 23.3991 1.89077C24.0231 2.24752 24.3351 2.79454 24.3351 3.53182C24.3351 4.07884 24.0711 4.51883 23.5431 4.85179C23.0391 5.16098 22.4271 5.31557 21.7071 5.31557C21.0111 5.31557 20.5311 5.13719 20.2671 4.78044C20.0031 4.4237 19.8711 4.05505 19.8711 3.67452C19.8711 2.96102 19.9431 2.36644 20.0871 1.89077C20.2551 1.41511 20.6271 1.18917 21.2031 1.21295ZM24.0831 17.017V18.0515C24.0831 18.9791 24.1071 19.8591 24.1551 20.6915C24.2271 21.5001 24.3111 22.3206 24.4071 23.153C24.3831 23.3909 24.2031 23.6406 23.8671 23.9022C23.5311 24.14 23.2311 24.259 22.9671 24.259C22.5111 24.259 22.0431 24.1757 21.5631 24.0092C21.1071 23.819 20.8311 23.593 20.7351 23.3314C20.5911 22.5704 20.5191 21.8925 20.5191 21.2979C20.5191 19.3477 20.4591 17.1597 20.3391 14.7338C20.2431 12.5933 20.1951 11.0949 20.1951 10.2387C20.1951 9.81061 20.4111 9.44197 20.8431 9.13279C21.2751 8.82361 21.7311 8.66901 22.2111 8.66901C22.9071 8.66901 23.3871 8.82361 23.6511 9.13279C23.9391 9.44197 24.0831 9.92953 24.0831 10.5955V17.017ZM36.494 3.10372C35.774 3.10372 35.33 3.6983 35.162 4.88747C34.994 6.50473 34.91 7.72957 34.91 8.56199C35.39 8.60956 35.894 8.63334 36.422 8.63334C36.758 8.63334 37.19 8.60956 37.718 8.56199L38.654 8.52631C39.134 8.52631 39.494 8.60956 39.734 8.77604C39.974 8.94252 40.094 9.21603 40.094 9.59656C40.094 10.1198 39.914 10.5717 39.554 10.9522C39.218 11.309 38.822 11.4873 38.366 11.4873C36.638 11.4873 35.474 11.5706 34.874 11.7371C34.874 13.1878 34.946 15.2451 35.09 17.9088L35.162 19.6569L35.306 22.4395C35.354 23.1293 35.282 23.6168 35.09 23.9022C34.922 24.1638 34.55 24.2946 33.974 24.2946C32.918 24.2946 32.234 23.6644 31.922 22.4039C31.73 21.4763 31.574 20.1801 31.454 18.5153C31.334 16.8505 31.274 15.364 31.274 14.0559C31.274 13.3662 31.31 12.5814 31.382 11.7014C31.334 11.6776 31.202 11.6657 30.986 11.6657C30.77 11.6657 30.614 11.6776 30.518 11.7014C29.798 11.749 29.27 11.7727 28.934 11.7727C28.718 11.7727 28.502 11.63 28.286 11.3446C28.07 11.0355 27.962 10.6668 27.962 10.2387C27.962 10.0009 28.046 9.78683 28.214 9.59656C28.382 9.38251 28.586 9.22792 28.826 9.13279C29.186 8.94252 29.702 8.84739 30.374 8.84739L31.454 8.88306C31.454 5.50584 31.838 3.16318 32.606 1.8551C33.326 0.618368 34.514 0 36.17 0C37.13 0 38.006 0.237833 38.798 0.713501C39.134 0.927551 39.386 1.18917 39.554 1.49835C39.746 1.80753 39.842 2.10482 39.842 2.39022C39.842 2.74697 39.698 3.11561 39.41 3.49615C39.146 3.87668 38.738 4.06695 38.186 4.06695C37.97 4.06695 37.694 3.90046 37.358 3.5675C37.238 3.44858 37.106 3.34156 36.962 3.24642C36.818 3.15129 36.662 3.10372 36.494 3.10372ZM47.1803 18.5866C47.1803 19.4904 47.3123 20.192 47.5763 20.6915C47.8643 21.1671 48.2243 21.405 48.6563 21.405C48.8963 21.405 49.1243 21.3931 49.3403 21.3693C49.5563 21.3217 49.7723 21.2979 49.9883 21.2979C50.2283 21.2979 50.4323 21.4169 50.6003 21.6547C50.7923 21.8925 50.8883 22.1541 50.8883 22.4395C50.8883 23.0103 50.6123 23.4622 50.0603 23.7952C49.5323 24.1044 48.8123 24.259 47.9003 24.259C47.2523 24.259 46.5923 24.0687 45.9203 23.6882C45.2723 23.2839 44.7323 22.6655 44.3003 21.8331C43.8683 20.9769 43.6523 19.9185 43.6523 18.658C43.6523 15.9467 43.7003 13.6516 43.7963 11.7727C43.9163 9.5371 43.9763 6.71878 43.9763 3.31777C43.9763 2.24752 44.0363 1.49835 44.1563 1.07025C44.3003 0.737284 44.5283 0.48756 44.8403 0.321075C45.1763 0.130809 45.5243 0.0356769 45.8843 0.0356769C46.2443 0.0356769 46.5563 0.0951351 46.8203 0.214051C47.1083 0.332967 47.3003 0.523234 47.3963 0.784851C47.4923 1.07025 47.5523 1.35565 47.5763 1.64105C47.6243 1.90267 47.6483 2.2832 47.6483 2.78265C47.6483 3.75776 47.6123 4.6972 47.5403 5.60097C47.4923 6.695 47.4683 7.49174 47.4683 7.99119C47.2763 12.1771 47.1803 15.7089 47.1803 18.5866ZM55.6797 1.21295C56.5197 1.2843 57.2517 1.51024 57.8757 1.89077C58.4997 2.24752 58.8117 2.79454 58.8117 3.53182C58.8117 4.07884 58.5477 4.51883 58.0197 4.85179C57.5157 5.16098 56.9037 5.31557 56.1837 5.31557C55.4877 5.31557 55.0077 5.13719 54.7437 4.78044C54.4797 4.4237 54.3477 4.05505 54.3477 3.67452C54.3477 2.96102 54.4197 2.36644 54.5637 1.89077C54.7317 1.41511 55.1037 1.18917 55.6797 1.21295ZM58.5597 17.017V18.0515C58.5597 18.9791 58.5837 19.8591 58.6317 20.6915C58.7037 21.5001 58.7877 22.3206 58.8837 23.153C58.8837 23.4384 58.7157 23.7001 58.3797 23.9379C58.0437 24.1519 57.7317 24.259 57.4437 24.259C56.9877 24.259 56.5197 24.1757 56.0397 24.0092C55.5837 23.819 55.3077 23.593 55.2117 23.3314C55.0677 22.5704 54.9957 21.8925 54.9957 21.2979C54.9957 19.3477 54.9357 17.1597 54.8157 14.7338C54.7197 12.5933 54.6717 11.0949 54.6717 10.2387C54.6717 9.81061 54.8877 9.44197 55.3197 9.13279C55.7517 8.82361 56.2077 8.66901 56.6877 8.66901C57.3837 8.66901 57.8637 8.82361 58.1277 9.13279C58.4157 9.44197 58.5597 9.92953 58.5597 10.5955V17.017ZM75.7226 8.38361C76.2026 8.38361 76.5746 8.50253 76.8386 8.74036C77.1266 8.95441 77.2706 9.22792 77.2706 9.56089C77.2706 9.79872 77.2226 10.0484 77.1266 10.3101C77.0546 10.5479 76.9706 10.7976 76.8746 11.0592C76.3226 12.3435 75.1586 14.1392 73.3826 16.4462C75.2066 18.7769 76.6826 20.2753 77.8106 20.9412C77.9066 20.9888 78.0866 21.072 78.3506 21.1909C78.6146 21.3098 78.8186 21.4525 78.9626 21.619C79.1306 21.7855 79.2146 21.9758 79.2146 22.1898C79.2146 22.7131 79.0106 23.1412 78.6026 23.4741C78.2186 23.7833 77.7506 23.9379 77.1986 23.9379C76.2626 23.9379 75.2426 23.4265 74.1386 22.4039C73.0346 21.3574 72.0986 20.2634 71.3306 19.1218C70.7786 19.9542 70.1426 20.7866 69.4226 21.619C68.7266 22.4277 68.0786 23.1174 67.4786 23.6882C67.2386 23.9498 66.9506 24.1519 66.6146 24.2946C66.3026 24.4373 65.9906 24.5087 65.6786 24.5087C65.2466 24.5087 64.8626 24.4136 64.5266 24.2233C64.1906 24.033 64.0226 23.7001 64.0226 23.2244C64.0226 23.1055 64.1066 22.9152 64.2746 22.6536C64.4426 22.3682 64.5386 22.2017 64.5626 22.1541C64.8506 21.6547 65.2346 21.1434 65.7146 20.6201C66.1946 20.0731 66.4946 19.7282 66.6146 19.5855C66.9026 19.2288 67.2146 18.8839 67.5506 18.551C67.7426 18.3369 68.0306 18.004 68.4146 17.5521C68.7986 17.1002 69.0626 16.7434 69.2066 16.4818L67.9466 14.7694C67.3466 14.0797 66.8306 13.5327 66.3986 13.1284C65.9666 12.7003 65.6186 12.4862 65.3546 12.4862C64.9706 12.4862 64.6106 12.5933 64.2746 12.8073C63.9866 12.9976 63.6986 13.0927 63.4106 13.0927C63.0986 13.0927 62.8586 13.0214 62.6906 12.8787C62.5226 12.7122 62.4386 12.5338 62.4386 12.3435C62.4386 11.5349 62.7626 10.8452 63.4106 10.2744C64.0586 9.6798 64.8746 9.38251 65.8586 9.38251C66.7946 9.38251 67.6226 9.70359 68.3426 10.3457C69.0866 10.9641 69.8186 11.7965 70.5386 12.843C70.6346 12.9381 70.7426 13.0927 70.8626 13.3068C70.9826 13.5208 71.1026 13.6992 71.2226 13.8419C71.4866 13.4613 71.9666 12.7241 72.6626 11.63C73.4066 10.322 73.8506 9.57278 73.9946 9.38251C74.4986 8.71658 75.0746 8.38361 75.7226 8.38361Z" fill="#D00707"/>
</svg>
